<?xml version="1.0" encoding="UTF-8"?>
<svg width="48px" height="48px" viewBox="0 0 48 48" version="1.1" xmlns="http://www.w3.org/2000/svg" xmlns:xlink="http://www.w3.org/1999/xlink">
    <!-- Generator: Sketch 52.6 (67491) - http://www.bohemiancoding.com/sketch -->
    <title>streamline-icon-voice-id-approved@24x24</title>
    <desc>Created with Sketch.</desc>
    <g id="Page-1" stroke="none" stroke-width="1" fill="none" fill-rule="evenodd" stroke-linecap="round" stroke-linejoin="round">
        <g id="Solutions-overview-page-Copy-4" transform="translate(-800.000000, -954.000000)" stroke="#FF3801" stroke-width="2">
            <g id="Feature-#13-Copy-2" transform="translate(0.000000, 683.000000)">
                <g id="streamline-icon-voice-id-approved@24x24" transform="translate(800.000000, 272.000000)">
                    <path d="M1,34.014 L1,4.014" id="Path"></path>
                    <path d="M5,12.014 L5,26.014" id="Path"></path>
                    <path d="M9,10.014 L9,28.014" id="Path"></path>
                    <path d="M13,8.014 L13,30.014" id="Path"></path>
                    <path d="M17,6.014 L17,32.014" id="Path"></path>
                    <path d="M41,19.014 L41,4.014" id="Path"></path>
                    <path d="M37,12.014 L37,18.014" id="Path"></path>
                    <path d="M33,10.014 L33,18.014" id="Path"></path>
                    <path d="M29,8.014 L29,19.014" id="Path"></path>
                    <path d="M25,6.014 L25,21.014" id="Path"></path>
                    <path d="M21,0.014 L21,26.014" id="Path"></path>
                    <path d="M35,22 C41.628,22 47,27.372 47,34 C47,40.628 41.628,46 35,46 C28.372,46 23,40.628 23,34 C23,27.372 28.372,22 35,22 Z" id="Path"></path>
                    <path d="M40.348,30.512 L34.538,38.258 C34.04,38.922 33.098,39.054 32.434,38.556 C32.378,38.514 32.326,38.468 32.278,38.42 L29.278,35.42" id="Path"></path>
                </g>
            </g>
        </g>
    </g>
</svg>