<?xml version="1.0" encoding="UTF-8"?>
<svg width="48px" height="48px" viewBox="0 0 48 48" version="1.1" xmlns="http://www.w3.org/2000/svg" xmlns:xlink="http://www.w3.org/1999/xlink">
    <!-- Generator: Sketch 52.6 (67491) - http://www.bohemiancoding.com/sketch -->
    <title>streamline-icon-resize-expand-corner@24x24</title>
    <desc>Created with Sketch.</desc>
    <g id="Page-1" stroke="none" stroke-width="1" fill="none" fill-rule="evenodd" stroke-linecap="round" stroke-linejoin="round">
        <g id="Solutions-overview-page-Copy-4" transform="translate(-1086.000000, -940.000000)" stroke="#FF3801" stroke-width="2">
            <g id="Feature-#13-Copy-2" transform="translate(0.000000, 683.000000)">
                <g id="streamline-icon-resize-expand-corner@24x24" transform="translate(1086.000000, 258.000000)">
                    <path d="M9,0 L45,0 C46.104,0 47,0.896 47,2 L47,38 C47,39.104 46.104,40 45,40 L9,40 C7.896,40 7,39.104 7,38 L7,2 C7,0.896 7.896,0 9,0 Z" id="Path"></path>
                    <path d="M25,22 L41,6" id="Path"></path>
                    <polyline id="Path" points="31 6 41 6 41 16"></polyline>
                    <path d="M3,26 C1.896,26 1,26.896 1,28" id="Path"></path>
                    <path d="M1,32 L1,34" id="Path"></path>
                    <path d="M15,26 L13,26" id="Path"></path>
                    <path d="M9,46 L7,46" id="Path"></path>
                    <path d="M15,46 L13,46" id="Path"></path>
                    <path d="M3,46 C1.896,46 1,45.104 1,44" id="Path"></path>
                    <path d="M1,40 L1,38" id="Path"></path>
                    <path d="M19,26 C20.104,26 21,26.896 21,28" id="Path"></path>
                    <path d="M21,32 L21,34" id="Path"></path>
                    <path d="M19,46 C20.104,46 21,45.104 21,44" id="Path"></path>
                </g>
            </g>
        </g>
    </g>
</svg>