<svg xmlns="http://www.w3.org/2000/svg" viewBox="0 0 1390.35 375.16"><defs><style>.cls-1{fill:#494949;}.cls-2{fill:#40c9ff;}.cls-3{fill:#9661ba;}.cls-4{fill:#ffa233;}.cls-5{fill:#ff5a7e;}.cls-6{fill:#ffd91d;}</style></defs><title>Asset 1</title><g id="Layer_2" data-name="Layer 2"><g id="Layer_1-2" data-name="Layer 1"><path class="cls-1" d="M375.23,187.61c0-52.45-75.8-139.17-140.31-173.23C217.79,5.36,201.5,0,187.61,0c-16.78,0-37.15,7.76-58.09,20.45C109.07,32.78,88,49.85,69,68.88c-19.24,19.25-36.45,40.54-48.86,61.2S0,170.9,0,187.54c0,66.35,121.27,187.62,187.61,187.62,16.78,0,37-7.76,58-20.38,20.44-12.34,41.6-29.47,60.7-48.51s36.38-40.47,48.72-61C367.54,224.42,375.23,204.25,375.23,187.61Z"/><path class="cls-2" d="M249.16,126.06A706.84,706.84,0,0,0,187.82,68.6c-18-14.8-36.52-28.06-55.06-38.56-19.25,11.63-39.13,27.7-57.11,45.68L187.54,187.61Z"/><path class="cls-3" d="M232.24,24.25c-16.14-8.53-31.51-13.53-44.63-13.53-15.86,0-35,7.33-54.78,19.32C151.37,40.47,169.92,53.8,187.9,68.6Z"/><path class="cls-4" d="M245.92,245.92l-58.31-58.31L75.72,75.72C57.53,93.84,41.32,114,29.61,133.47,67.05,198.19,138.26,263,188.11,303.73Z"/><path class="cls-5" d="M242.25,345.26c-4.51-3.17-25.94-18.54-54.14-41.6C138.26,263,67.05,198.19,29.61,133.47,17.91,153,10.72,172,10.72,187.61c0,62.54,114.36,176.9,176.89,176.9C203.41,364.51,222.51,357.18,242.25,345.26Z"/><path class="cls-6" d="M364.51,187.61c0-49.42-71.49-131.21-132.27-163.36L187.9,68.6a707.26,707.26,0,0,1,61.26,57.46l-61.55,61.55,58.31,58.31-57.81,57.81c28.27,23.06,49.63,38.36,54.14,41.6,19.32-11.63,39.2-27.78,57.25-45.76s34.27-38.14,46-57.6C357.32,222.3,364.51,203.34,364.51,187.61Z"/><path class="cls-1" d="M467.82,245.37a9,9,0,0,1-3.83-3.12,8.11,8.11,0,0,1,.67-10.29,7.35,7.35,0,0,1,5.62-2.33,9.15,9.15,0,0,1,3.63.75,91,91,0,0,0,37.53,7.7q33.32,0,33.33-21.91a12.18,12.18,0,0,0-4.29-9.54,31,31,0,0,0-10.58-6c-4.21-1.46-10.17-3.21-17.92-5.25a226.81,226.81,0,0,1-25-7.7,43.33,43.33,0,0,1-16.37-11.17q-6.87-7.44-6.88-19.74A35.7,35.7,0,0,1,469.49,137a39.35,39.35,0,0,1,16.87-14q11.13-5.25,26.75-5.25A109,109,0,0,1,551,124a7.4,7.4,0,0,1,5.33,7.63,8.5,8.5,0,0,1-2.08,5.54,6.91,6.91,0,0,1-5.54,2.45,9.42,9.42,0,0,1-3.05-.75A92.68,92.68,0,0,0,515,133.77q-15.06,0-24.45,5.71c-6.29,3.79-9.41,9.12-9.41,16a14.78,14.78,0,0,0,4.45,11.17,30.15,30.15,0,0,0,11.25,6.66,175.82,175.82,0,0,0,18.37,5,191.5,191.5,0,0,1,24.29,7.25,39.53,39.53,0,0,1,15.79,11.25c4.37,5.08,6.58,11.92,6.58,20.58a32,32,0,0,1-6.08,19.16,40.2,40.2,0,0,1-17.12,13.21,63.46,63.46,0,0,1-25.58,4.75A114.42,114.42,0,0,1,467.82,245.37Z"/><path class="cls-1" d="M586.13,251.08a8.08,8.08,0,0,1-2.45-6.08V121.4a8.63,8.63,0,0,1,2.45-6.21,8.24,8.24,0,0,1,6.09-2.58,8.75,8.75,0,0,1,8.75,8.75v49.69a62.9,62.9,0,0,1,15.62-12.78,39.18,39.18,0,0,1,19.74-4.75,33.05,33.05,0,0,1,18.21,4.95A32.16,32.16,0,0,1,666.33,172a43.63,43.63,0,0,1,4.16,18.87v54.08a8.07,8.07,0,0,1-2.58,6.08,8.61,8.61,0,0,1-6.16,2.46,8.51,8.51,0,0,1-8.59-8.38V192.76q0-23.25-20.91-23.25a30.21,30.21,0,0,0-17,5A62,62,0,0,0,601,187.8v57.12a8.08,8.08,0,0,1-2.59,6.08,8.62,8.62,0,0,1-6.2,2.46A8,8,0,0,1,586.13,251.08Z"/><path class="cls-1" d="M747.06,235.17A44.77,44.77,0,0,0,760.23,225V209H739.44q-28.76,0-28.75,15a14.07,14.07,0,0,0,4.67,11c3.08,2.79,8.29,4.21,15.5,4.21A34.15,34.15,0,0,0,747.06,235.17Zm-38.2,15.91a26.88,26.88,0,0,1-11.33-10A27.42,27.42,0,0,1,693.36,226a26.68,26.68,0,0,1,11.13-22.45c7.41-5.59,18.33-8.38,32.66-8.38h23v-1.54q0-12.56-6.2-18.08c-4.13-3.71-10.58-5.54-19.33-5.54a63.2,63.2,0,0,0-12.88,1.17,108.17,108.17,0,0,0-12.45,3.41,11.89,11.89,0,0,1-2.46.38,7.1,7.1,0,0,1-7-7.21,7.39,7.39,0,0,1,5-7.25,83.78,83.78,0,0,1,33-6.87q13.13,0,22.2,5.33a33.41,33.41,0,0,1,13.33,13.79,40.46,40.46,0,0,1,4.21,18.33V245a8.05,8.05,0,0,1-2.58,6.08,8.62,8.62,0,0,1-6.17,2.46,8.51,8.51,0,0,1-8.58-8.38V240Q746,254.45,724.36,254.41A34.23,34.23,0,0,1,708.86,251.08Z"/><path class="cls-1" d="M809.13,251.08a8.13,8.13,0,0,1-2.46-6.08V163.31a8.64,8.64,0,0,1,2.46-6.21,8.18,8.18,0,0,1,6.08-2.58,8.74,8.74,0,0,1,8.75,8.74v8.13c8.88-11.92,18.87-17.92,29.91-17.92h1a8.1,8.1,0,0,1,6,2.46,8.62,8.62,0,0,1,2.33,6.08,7.74,7.74,0,0,1-2.45,5.92,8.75,8.75,0,0,1-6.29,2.33h-1a32.35,32.35,0,0,0-16.71,4.5A38.44,38.44,0,0,0,824,187.05V245a8.05,8.05,0,0,1-2.58,6.08,8.64,8.64,0,0,1-6.21,2.46A8,8,0,0,1,809.13,251.08Z"/><path class="cls-1" d="M944.52,196.05a30.2,30.2,0,0,0-4.87-15.62,26.41,26.41,0,0,0-10.58-9.25,29,29,0,0,0-25.58,0A25.23,25.23,0,0,0,893,180.43a31,31,0,0,0-4.75,15.62Zm-60.65,45.24c-8.71-8.83-13-21.2-13-37.2a61.73,61.73,0,0,1,5-25A42.19,42.19,0,0,1,891,160.68c6.88-4.71,15.29-7,25.33-7,9.37,0,17.54,2.21,24.41,6.58a42.53,42.53,0,0,1,15.58,17.46,53.88,53.88,0,0,1,5.34,23.91,8.33,8.33,0,0,1-8,8.58H888.37c1,8.88,4.33,15.79,9.91,20.75s13.42,7.41,23.41,7.41a56.07,56.07,0,0,0,14-1.54,59.41,59.41,0,0,0,11.71-4.37,7,7,0,0,1,3.41-.75,7.85,7.85,0,0,1,5.33,2.08,7.06,7.06,0,0,1,2.34,5.33c0,2.79-1.67,5.17-5,7a59.59,59.59,0,0,1-33.33,8.38Q896.92,254.5,883.87,241.29Z"/><path class="cls-1" d="M1011.47,246.25a59.72,59.72,0,0,1-23.79-23.79C981.89,212.13,979,200,979,186.18s2.87-25.91,8.66-36.29a59.63,59.63,0,0,1,23.79-23.78,70.25,70.25,0,0,1,34.2-8.29,80.25,80.25,0,0,1,23.16,3,99.59,99.59,0,0,1,20.29,8.74,7.76,7.76,0,0,1,4.21,7.25,7.29,7.29,0,0,1-7.63,7.21,7.45,7.45,0,0,1-3.41-.75,89.24,89.24,0,0,0-16.37-6.67,67.69,67.69,0,0,0-18.46-2.33q-16.37,0-27.91,6.75a43.08,43.08,0,0,0-17.33,18.46,63.57,63.57,0,0,0,0,53.11,43.05,43.05,0,0,0,17.33,18.45c7.66,4.5,17,6.75,27.91,6.75a67.11,67.11,0,0,0,18.46-2.33,89.24,89.24,0,0,0,16.37-6.67,7.42,7.42,0,0,1,3.41-.74,7.58,7.58,0,0,1,5.54,2.08,6.93,6.93,0,0,1,2.09,5.12,7.68,7.68,0,0,1-4.21,7.25,97.45,97.45,0,0,1-20.29,8.75,81,81,0,0,1-23.16,3A68.76,68.76,0,0,1,1011.47,246.25Z"/><path class="cls-1" d="M1118.4,251.08A8.08,8.08,0,0,1,1116,245V121.4a8.63,8.63,0,0,1,2.45-6.21,8.24,8.24,0,0,1,6.09-2.58,8.75,8.75,0,0,1,8.75,8.75v49.69a62.9,62.9,0,0,1,15.62-12.78,39.18,39.18,0,0,1,19.74-4.75,33.05,33.05,0,0,1,18.21,4.95A32.16,32.16,0,0,1,1198.6,172a43.43,43.43,0,0,1,4.08,18.87v54.08a8.07,8.07,0,0,1-2.58,6.08,8.66,8.66,0,0,1-6.21,2.46,8.5,8.5,0,0,1-8.58-8.38V192.76q0-23.25-20.91-23.25a30.21,30.21,0,0,0-17,5,61.87,61.87,0,0,0-14.21,13.33v57.12a8.07,8.07,0,0,1-2.58,6.08,8.63,8.63,0,0,1-6.17,2.46A7.85,7.85,0,0,1,1118.4,251.08Z"/><path class="cls-1" d="M1279.29,235.17A44.6,44.6,0,0,0,1292.45,225V209h-20.74Q1243,209,1243,224a14,14,0,0,0,4.67,11c3.08,2.79,8.29,4.21,15.5,4.21A33.88,33.88,0,0,0,1279.29,235.17Zm-38.16,15.91a26.88,26.88,0,0,1-11.33-10,27.8,27.8,0,0,1-4.21-15.12,26.62,26.62,0,0,1,11.17-22.45c7.41-5.59,18.33-8.38,32.66-8.38h23v-1.54q0-12.56-6.2-18.08c-4.13-3.71-10.58-5.54-19.33-5.54a63.2,63.2,0,0,0-12.88,1.17,108.17,108.17,0,0,0-12.45,3.41,11.89,11.89,0,0,1-2.46.38,7.1,7.1,0,0,1-7-7.21,7.39,7.39,0,0,1,5-7.25,83.78,83.78,0,0,1,33-6.87q13.13,0,22.2,5.33a33.41,33.41,0,0,1,13.33,13.79,40.2,40.2,0,0,1,4.3,18.37V245a8.06,8.06,0,0,1-2.59,6.08,8.58,8.58,0,0,1-6.2,2.46,8.48,8.48,0,0,1-8.59-8.33v-5.13q-14.12,14.5-35.82,14.46A35.17,35.17,0,0,1,1241.13,251.08Z"/><path class="cls-1" d="M1390.35,244.42c0,2.91-1.46,5.16-4.37,6.66a37.64,37.64,0,0,1-15.79,3.5q-27.81,0-27.79-25.12V170.39h-11a7,7,0,0,1-5.34-2.17A7.31,7.31,0,0,1,1324,163a7.16,7.16,0,0,1,6.87-7.45h11.5V121.15a8.51,8.51,0,0,1,8.46-8.54h.08a8.66,8.66,0,0,1,6.21,2.5,8,8,0,0,1,2.54,6v34.32h21.54a7.49,7.49,0,0,1,7.41,7.54,7.39,7.39,0,0,1-2.08,5.13,6.9,6.9,0,0,1-5.33,2.16h-21.54v57.54c0,4.95,1.17,8.12,3.5,9.45a17.69,17.69,0,0,0,8.87,2,26.24,26.24,0,0,0,7.63-1.17l1.62-.37a9.52,9.52,0,0,1,2.21-.17,6.59,6.59,0,0,1,4.75,2A6.72,6.72,0,0,1,1390.35,244.42Z"/></g></g></svg>