<?xml version="1.0" encoding="UTF-8"?>
<svg width="48px" height="48px" viewBox="0 0 48 48" version="1.1" xmlns="http://www.w3.org/2000/svg" xmlns:xlink="http://www.w3.org/1999/xlink">
    <!-- Generator: Sketch 52.6 (67491) - http://www.bohemiancoding.com/sketch -->
    <title>streamline-icon-audio-file-check@48x48</title>
    <desc>Created with Sketch.</desc>
    <g id="Page-1" stroke="none" stroke-width="1" fill="none" fill-rule="evenodd" stroke-linecap="round" stroke-linejoin="round">
        <g id="Technology" transform="translate(-1040.000000, -3221.000000)" stroke="#FFFFFF" stroke-width="2">
            <g id="streamline-icon-audio-file-check@48x48" transform="translate(1041.000000, 3222.000000)">
                <path d="M18,46 L2,46 C0.896,46 0,45.104 0,44 L0,2 C0,0.896 0.896,0 2,0 L28.586,0 C29.116,0 29.626,0.21 30,0.586 L37.414,8 C37.79,8.374 38,8.884 38,9.414 L38,16" id="Path"></path>
                <path d="M18,27 C18,28.866 15.762,30.374 13,30.374 C10.238,30.374 8,28.866 8,27 C8,25.134 10.238,23.626 13,23.626 C15.762,23.626 18,25.136 18,27 Z" id="Path"></path>
                <path d="M17.9999967,27 L18,13.446 C17.998,12.342 18.892,11.444 19.996,11.442 C20.348,11.442 20.694,11.534 21,11.71 L25,14" id="Path"></path>
                <path d="M34,22 C40.628,22 46,27.372 46,34 C46,40.628 40.628,46 34,46 C27.372,46 22,40.628 22,34 C22,27.372 27.372,22 34,22 Z" id="Path"></path>
                <path d="M39.348,30.512 L33.538,38.258 C33.038,38.922 32.096,39.054 31.432,38.556 C31.378,38.514 31.324,38.47 31.276,38.42 L28.276,35.42" id="Path"></path>
            </g>
        </g>
    </g>
</svg>