<?xml version="1.0" encoding="UTF-8"?>
<svg width="48px" height="48px" viewBox="0 0 48 48" version="1.1" xmlns="http://www.w3.org/2000/svg" xmlns:xlink="http://www.w3.org/1999/xlink">
    <!-- Generator: Sketch 52.6 (67491) - http://www.bohemiancoding.com/sketch -->
    <title>streamline-icon-single-neutral-actions-money@48x48 (1)</title>
    <desc>Created with Sketch.</desc>
    <g id="Page-1" stroke="none" stroke-width="1" fill="none" fill-rule="evenodd" stroke-linecap="round" stroke-linejoin="round">
        <g id="Technology" transform="translate(-962.000000, -3221.000000)" stroke="#FFFFFF" stroke-width="2">
            <g id="streamline-icon-single-neutral-actions-money@48x48-(1)" transform="translate(963.000000, 3222.000000)">
                <path d="M37,28 L32.934,28 C31.452,28.002 30.25,29.204 30.252,30.686 C30.252,31.78 30.918,32.766 31.934,33.174 L36.062,34.826 C37.438,35.38 38.104,36.942 37.55,38.318 C37.142,39.334 36.156,40 35.062,40 L31,40" id="Path"></path>
                <path d="M34,42 L34,40.002" id="Path"></path>
                <path d="M34,22 C40.628,22 46,27.372 46,34 C46,40.628 40.628,46 34,46 C27.372,46 22,40.628 22,34 C22,27.372 27.372,22 34,22 Z" id="Path"></path>
                <path d="M34,28.002 L34,26" id="Path"></path>
                <path d="M14,0 C18.694,0 22.5,3.806 22.5,8.5 C22.5,13.194 18.694,17 14,17 C9.306,17 5.5,13.194 5.5,8.5 C5.5,3.806 9.306,0 14,0 Z" id="Path"></path>
                <path d="M16,34 L0,34 C0,26.268 6.268,20 14,20 C16.682,20 19.31,20.77 21.566,22.22" id="Path"></path>
            </g>
        </g>
    </g>
</svg>