<?xml version="1.0" encoding="UTF-8"?>
<svg width="48px" height="48px" viewBox="0 0 48 48" version="1.1" xmlns="http://www.w3.org/2000/svg" xmlns:xlink="http://www.w3.org/1999/xlink">
    <!-- Generator: Sketch 52.6 (67491) - http://www.bohemiancoding.com/sketch -->
    <title>streamline-icon-video-file-check@48x48</title>
    <desc>Created with Sketch.</desc>
    <g id="Page-1" stroke="none" stroke-width="1" fill="none" fill-rule="evenodd" stroke-linecap="round" stroke-linejoin="round">
        <g id="Technology" transform="translate(-1207.000000, -3221.000000)" stroke="#FFFFFF" stroke-width="2">
            <g id="streamline-icon-video-file-check@48x48" transform="translate(1208.000000, 3222.000000)">
                <path d="M18,46 L2,46 C0.896,46 0,45.104 0,44 L0,2 C0,0.896 0.896,0 2,0 L28.586,0 C29.116,0 29.626,0.21 30,0.586 L37.414,8 C37.79,8.374 38,8.884 38,9.414 L38,16" id="Path"></path>
                <path d="M24.214,20.78 L14.272,15.428 C13.534,15.018 12.604,15.282 12.194,16.018 C12.066,16.246 12,16.504 12,16.764 L12,28.236 C12,29.08 12.682,29.764 13.526,29.766 C13.786,29.766 14.044,29.7 14.272,29.572 L18.622,26.896" id="Path"></path>
                <path d="M34,22 C40.628,22 46,27.372 46,34 C46,40.628 40.628,46 34,46 C27.372,46 22,40.628 22,34 C22,27.372 27.372,22 34,22 Z" id="Path"></path>
                <path d="M39.348,30.51 L33.538,38.258 C33.04,38.922 32.098,39.054 31.434,38.556 C31.378,38.514 31.324,38.468 31.276,38.418 L28.276,35.418" id="Path"></path>
            </g>
        </g>
    </g>
</svg>