<?xml version="1.0" encoding="UTF-8"?>
<svg width="46px" height="46px" viewBox="0 0 46 46" version="1.1" xmlns="http://www.w3.org/2000/svg" xmlns:xlink="http://www.w3.org/1999/xlink">
    <!-- Generator: Sketch 52.6 (67491) - http://www.bohemiancoding.com/sketch -->
    <title>streamline-icon-loading-circle-1@48x48</title>
    <desc>Created with Sketch.</desc>
    <g id="Page-1" stroke="none" stroke-width="1" fill="none" fill-rule="evenodd" stroke-linecap="round" stroke-linejoin="round">
        <g id="Technology" transform="translate(-1130.000000, -3222.000000)" stroke="#FFFFFF" stroke-width="2">
            <g id="streamline-icon-loading-circle-1@48x48" transform="translate(1130.000000, 3223.000000)">
                <path d="M32,42.076 C20.912,47.046 7.896,42.086 2.926,30.998 C-2.044,19.91 2.918,6.894 14.006,1.924 C16.834,0.656 19.9,0 23,0" id="Path"></path>
                <path d="M36.368,4.524 C36.86,4.898 37.334,5.296 37.792,5.71 C38.25,6.124 38.69,6.562 39.11,7.014" id="Path"></path>
                <path d="M42.5,11.81 C42.786,12.358 43.05,12.918 43.288,13.488 C43.526,14.058 43.742,14.638 43.932,15.226" id="Path"></path>
                <path d="M44.978,21 C45.006,21.618 45.006,22.236 44.978,22.854 C44.952,23.47 44.902,24.088 44.826,24.7" id="Path"></path>
                <path d="M43.338,30.386 C43.102,30.958 42.842,31.518 42.558,32.068 C42.274,32.618 41.968,33.154 41.642,33.68" id="Path"></path>
                <path d="M29.572,1 C30.214,1.2 30.842,1.428 31.458,1.686" id="Path"></path>
                <path d="M38.45,37.658 C37.976,38.126 37.48,38.574 36.964,38.996" id="Path"></path>
                <path d="M23,6 C31.836,6 39,13.164 39,22 C39,30.836 31.836,38 23,38 C14.164,38 7,30.836 7,22" id="Path"></path>
            </g>
        </g>
    </g>
</svg>